<svg width="24" height="28" fill="none" xmlns="http://www.w3.org/2000/svg"><path d="M17.333 16.667H6.667a1.333 1.333 0 000 2.666h10.666a1.333 1.333 0 100-2.666zm0-5.334h-8a1.334 1.334 0 000 2.667h8a1.333 1.333 0 100-2.667zm5.334-8h-4V2A1.333 1.333 0 0016 2v1.333h-2.667V2a1.333 1.333 0 10-2.666 0v1.333H8V2a1.333 1.333 0 00-2.667 0v1.333h-4A1.333 1.333 0 000 4.667v18.666a4 4 0 004 4h16a4 4 0 004-4V4.667a1.334 1.334 0 00-1.333-1.334zm-1.334 20A1.333 1.333 0 0120 24.667H4a1.333 1.333 0 01-1.333-1.334V6h2.666v1.333a1.333 1.333 0 102.667 0V6h2.667v1.333a1.333 1.333 0 102.666 0V6H16v1.333a1.333 1.333 0 002.667 0V6h2.666v17.333z" fill="#A53DFF"/></svg>