<svg width="28" height="28" fill="none" xmlns="http://www.w3.org/2000/svg"><path d="M27.333 7.653a1.333 1.333 0 00-.386-.946l-5.654-5.654a1.333 1.333 0 00-.946-.386 1.333 1.333 0 00-.947.386l-3.773 3.774L1.053 19.4a1.333 1.333 0 00-.386.947V26A1.333 1.333 0 002 27.333h5.653a1.333 1.333 0 001.014-.386L23.16 12.373l3.787-3.706c.121-.13.22-.278.293-.44a1.338 1.338 0 000-.32.939.939 0 000-.187l.093-.067zM7.107 24.666H3.333v-3.773l13.24-13.24 3.774 3.774-13.24 13.24zm15.12-15.12l-3.774-3.773 1.894-1.88 3.76 3.76-1.88 1.894z" fill="#A53DFF"/></svg>