<svg width="140" height="37" fill="none" xmlns="http://www.w3.org/2000/svg"><path d="M103 2.65c0-1.463 1.225-2.65 2.735-2.65h31.53C138.776 0 140 1.187 140 2.65v31.7c0 1.463-1.224 2.65-2.735 2.65h-31.53c-1.51 0-2.735-1.187-2.735-2.65V2.65z" fill="#069"/><path d="M0 31h15.333v-5.087H5.55V6.51H0V31zm23.096 0V14.132h-5.55V31h5.55zm-2.774-19.171c1.935 0 3.14-1.296 3.14-2.915C23.425 7.259 22.257 6 20.358 6s-3.14 1.26-3.14 2.914c0 1.62 1.205 2.915 3.067 2.915h.036zM25.672 31h5.55v-9.42c0-.505.036-1.009.183-1.368.4-1.007 1.314-2.05 2.847-2.05 2.008 0 2.812 1.546 2.812 3.813v9.024h5.548v-9.671c0-5.182-2.737-7.593-6.389-7.593-2.993 0-4.308 1.69-5.038 2.843h.037v-2.446h-5.55c.074 1.582 0 16.868 0 16.868zm24.77-24.49h-5.55V31h5.55v-5.47l1.386-1.763L56.173 31H63l-7.301-10.471 6.388-7.124h-6.68s-4.563 6.373-4.965 7.13V6.51z" fill="#000"/><path d="M78.085 23.832c.075-.417.186-1.219.186-2.125 0-4.205-2.229-8.474-8.097-8.474-6.277 0-9.174 4.755-9.174 9.067 0 5.333 3.529 8.664 9.694 8.664 2.451 0 4.716-.346 6.574-1.075l-.743-3.571c-1.523.484-3.083.726-5.014.726-2.637 0-4.939-1.037-5.125-3.247l11.7.035zM66.35 20.175c.149-1.389 1.115-3.437 3.529-3.437 2.562 0 3.157 2.187 3.157 3.437H66.35zM92.206 7v8.176h-.075c-.817-1.144-2.525-1.908-4.79-1.908-4.346 0-8.171 3.331-8.134 9.022 0 5.275 3.454 8.71 7.762 8.71 2.34 0 4.568-.972 5.683-2.846h.11l.224 2.464H98a86.691 86.691 0 01-.149-5.066V7h-5.645zm0 16.088c0 .416-.037.833-.112 1.18-.333 1.492-1.67 2.532-3.305 2.532-2.34 0-3.862-1.804-3.862-4.649 0-2.671 1.3-4.823 3.9-4.823 1.745 0 2.97 1.145 3.305 2.567.074.313.074.66.074.972v2.221z" fill="#000"/><path d="M113.902 31V14.13h-5.573V31h5.573zm-2.786-19.171c1.944 0 3.154-1.296 3.154-2.914C114.233 7.259 113.06 6 111.154 6 109.246 6 108 7.26 108 8.915c0 1.618 1.209 2.914 3.08 2.914h.036zm5.871 19.17h5.573v-9.418c0-.504.037-1.009.184-1.368.403-1.008 1.32-2.051 2.86-2.051 2.016 0 2.823 1.547 2.823 3.815V31H134v-9.672c0-5.181-2.749-7.592-6.416-7.592-3.007 0-4.327 1.69-5.06 2.841h.037v-2.445h-5.573c.072 1.582-.001 16.867-.001 16.867z" fill="#fff"/></svg>