<svg width="56" height="56" fill="none" xmlns="http://www.w3.org/2000/svg"><rect width="56" height="56" rx="28" fill="#A53DFF"/><path d="M30.728 27.432c.896.16 1.656.632 2.28 1.416.624.784.936 1.672.936 2.664 0 .848-.224 1.616-.672 2.304-.432.672-1.064 1.208-1.896 1.608-.832.384-1.8.576-2.904.576H21.8V19.32h6.36c1.136 0 2.112.192 2.928.576.816.384 1.432.904 1.848 1.56.416.64.624 1.36.624 2.16 0 .96-.256 1.76-.768 2.4-.512.64-1.2 1.112-2.064 1.416zm-6.192-1.104h3.384c.896 0 1.592-.2 2.088-.6.512-.416.768-1.008.768-1.776 0-.752-.256-1.336-.768-1.752-.496-.432-1.192-.648-2.088-.648h-3.384v4.776zm3.696 7.44c.928 0 1.656-.224 2.184-.672.528-.448.792-1.072.792-1.872 0-.816-.28-1.464-.84-1.944-.56-.48-1.304-.72-2.232-.72h-3.6v5.208h3.696z" fill="#fff"/></svg>